<mxfile host="app.diagrams.net" agent="Mozilla/5.0 (Windows NT 10.0; Win64; x64) AppleWebKit/537.36 (KHTML, like Gecko) Chrome/137.0.0.0 Safari/537.36" version="26.0.10">
  <diagram name="Strona-1" id="depyI_Zt2BGk7B2Sb--A">
    <mxGraphModel dx="1195" dy="620" grid="1" gridSize="10" guides="1" tooltips="1" connect="1" arrows="1" fold="1" page="1" pageScale="1" pageWidth="827" pageHeight="1169" math="0" shadow="0">
      <root>
        <mxCell id="0" />
        <mxCell id="1" parent="0" />
        <mxCell id="0Bl3yuooD-DPhsjYiCxI-1" value="" style="whiteSpace=wrap;html=1;aspect=fixed;" vertex="1" parent="1">
          <mxGeometry x="160" y="110" width="480" height="480" as="geometry" />
        </mxCell>
        <mxCell id="0Bl3yuooD-DPhsjYiCxI-2" value="Użytkownika&lt;div&gt;aplikacji&lt;/div&gt;" style="shape=umlActor;verticalLabelPosition=bottom;verticalAlign=top;html=1;outlineConnect=0;" vertex="1" parent="1">
          <mxGeometry x="100" y="320" width="30" height="60" as="geometry" />
        </mxCell>
        <mxCell id="0Bl3yuooD-DPhsjYiCxI-3" value="zmiana metody&lt;div&gt;rozwiązywania&lt;/div&gt;" style="ellipse;whiteSpace=wrap;html=1;fillColor=#dae8fc;strokeColor=#6c8ebf;" vertex="1" parent="1">
          <mxGeometry x="350" y="270" width="100" height="50" as="geometry" />
        </mxCell>
        <mxCell id="0Bl3yuooD-DPhsjYiCxI-5" value="uruchomienie&lt;div&gt;rozwiązywania&lt;/div&gt;" style="ellipse;whiteSpace=wrap;html=1;fillColor=#dae8fc;strokeColor=#6c8ebf;" vertex="1" parent="1">
          <mxGeometry x="210" y="325" width="100" height="50" as="geometry" />
        </mxCell>
        <mxCell id="0Bl3yuooD-DPhsjYiCxI-6" value="zmiana&lt;div&gt;parametrów metody&lt;/div&gt;" style="ellipse;whiteSpace=wrap;html=1;fillColor=#dae8fc;strokeColor=#6c8ebf;" vertex="1" parent="1">
          <mxGeometry x="530" y="270" width="100" height="50" as="geometry" />
        </mxCell>
        <mxCell id="0Bl3yuooD-DPhsjYiCxI-7" value="zmiana&lt;div&gt;wielkości&lt;/div&gt;&lt;div&gt;planszy&lt;/div&gt;" style="ellipse;whiteSpace=wrap;html=1;fillColor=#dae8fc;strokeColor=#6c8ebf;" vertex="1" parent="1">
          <mxGeometry x="360" y="130" width="100" height="50" as="geometry" />
        </mxCell>
        <mxCell id="0Bl3yuooD-DPhsjYiCxI-8" value="Wybór zestawu danych" style="ellipse;whiteSpace=wrap;html=1;fillColor=#dae8fc;strokeColor=#6c8ebf;" vertex="1" parent="1">
          <mxGeometry x="460" y="190" width="100" height="50" as="geometry" />
        </mxCell>
        <mxCell id="0Bl3yuooD-DPhsjYiCxI-9" value="zatrzymanie&lt;div&gt;rozwiązywania&lt;/div&gt;" style="ellipse;whiteSpace=wrap;html=1;fillColor=#dae8fc;strokeColor=#6c8ebf;" vertex="1" parent="1">
          <mxGeometry x="200" y="470" width="100" height="50" as="geometry" />
        </mxCell>
        <mxCell id="0Bl3yuooD-DPhsjYiCxI-10" value="" style="endArrow=classic;html=1;rounded=0;" edge="1" parent="1" target="0Bl3yuooD-DPhsjYiCxI-5">
          <mxGeometry width="50" height="50" relative="1" as="geometry">
            <mxPoint x="140" y="350" as="sourcePoint" />
            <mxPoint x="430" y="310" as="targetPoint" />
          </mxGeometry>
        </mxCell>
        <mxCell id="0Bl3yuooD-DPhsjYiCxI-11" value="" style="endArrow=classic;html=1;rounded=0;" edge="1" parent="1" target="0Bl3yuooD-DPhsjYiCxI-9">
          <mxGeometry width="50" height="50" relative="1" as="geometry">
            <mxPoint x="140" y="370" as="sourcePoint" />
            <mxPoint x="430" y="310" as="targetPoint" />
          </mxGeometry>
        </mxCell>
        <mxCell id="0Bl3yuooD-DPhsjYiCxI-12" value="modyfikacja&lt;div&gt;parametrów&lt;/div&gt;" style="ellipse;whiteSpace=wrap;html=1;fillColor=#dae8fc;strokeColor=#6c8ebf;" vertex="1" parent="1">
          <mxGeometry x="210" y="190" width="100" height="50" as="geometry" />
        </mxCell>
        <mxCell id="0Bl3yuooD-DPhsjYiCxI-13" value="" style="endArrow=classic;html=1;rounded=0;" edge="1" parent="1" target="0Bl3yuooD-DPhsjYiCxI-12">
          <mxGeometry width="50" height="50" relative="1" as="geometry">
            <mxPoint x="140" y="330" as="sourcePoint" />
            <mxPoint x="430" y="310" as="targetPoint" />
          </mxGeometry>
        </mxCell>
        <mxCell id="0Bl3yuooD-DPhsjYiCxI-14" value="" style="endArrow=classic;html=1;rounded=0;dashed=1;" edge="1" parent="1" source="0Bl3yuooD-DPhsjYiCxI-7" target="0Bl3yuooD-DPhsjYiCxI-12">
          <mxGeometry relative="1" as="geometry">
            <mxPoint x="380" y="60" as="sourcePoint" />
            <mxPoint x="450" y="340" as="targetPoint" />
          </mxGeometry>
        </mxCell>
        <mxCell id="0Bl3yuooD-DPhsjYiCxI-15" value="&amp;lt;&amp;lt;extends&amp;gt;&amp;gt;" style="edgeLabel;resizable=0;html=1;;align=center;verticalAlign=middle;" connectable="0" vertex="1" parent="0Bl3yuooD-DPhsjYiCxI-14">
          <mxGeometry relative="1" as="geometry" />
        </mxCell>
        <mxCell id="0Bl3yuooD-DPhsjYiCxI-16" value="" style="endArrow=classic;html=1;rounded=0;dashed=1;" edge="1" parent="1" source="0Bl3yuooD-DPhsjYiCxI-3" target="0Bl3yuooD-DPhsjYiCxI-12">
          <mxGeometry relative="1" as="geometry">
            <mxPoint x="381" y="181" as="sourcePoint" />
            <mxPoint x="309" y="209" as="targetPoint" />
          </mxGeometry>
        </mxCell>
        <mxCell id="0Bl3yuooD-DPhsjYiCxI-17" value="&amp;lt;&amp;lt;extends&amp;gt;&amp;gt;" style="edgeLabel;resizable=0;html=1;;align=center;verticalAlign=middle;" connectable="0" vertex="1" parent="0Bl3yuooD-DPhsjYiCxI-16">
          <mxGeometry relative="1" as="geometry" />
        </mxCell>
        <mxCell id="0Bl3yuooD-DPhsjYiCxI-18" value="" style="endArrow=classic;html=1;rounded=0;dashed=1;" edge="1" parent="1" source="0Bl3yuooD-DPhsjYiCxI-8" target="0Bl3yuooD-DPhsjYiCxI-12">
          <mxGeometry relative="1" as="geometry">
            <mxPoint x="431" y="272" as="sourcePoint" />
            <mxPoint x="313" y="238" as="targetPoint" />
          </mxGeometry>
        </mxCell>
        <mxCell id="0Bl3yuooD-DPhsjYiCxI-19" value="&amp;lt;&amp;lt;extends&amp;gt;&amp;gt;" style="edgeLabel;resizable=0;html=1;;align=center;verticalAlign=middle;" connectable="0" vertex="1" parent="0Bl3yuooD-DPhsjYiCxI-18">
          <mxGeometry relative="1" as="geometry" />
        </mxCell>
        <mxCell id="0Bl3yuooD-DPhsjYiCxI-23" value="" style="endArrow=classic;html=1;rounded=0;dashed=1;" edge="1" parent="1" source="0Bl3yuooD-DPhsjYiCxI-6" target="0Bl3yuooD-DPhsjYiCxI-3">
          <mxGeometry relative="1" as="geometry">
            <mxPoint x="377" y="286" as="sourcePoint" />
            <mxPoint x="303" y="244" as="targetPoint" />
          </mxGeometry>
        </mxCell>
        <mxCell id="0Bl3yuooD-DPhsjYiCxI-24" value="&amp;lt;&amp;lt;extends&amp;gt;&amp;gt;" style="edgeLabel;resizable=0;html=1;;align=center;verticalAlign=middle;" connectable="0" vertex="1" parent="0Bl3yuooD-DPhsjYiCxI-23">
          <mxGeometry relative="1" as="geometry">
            <mxPoint y="-15" as="offset" />
          </mxGeometry>
        </mxCell>
        <mxCell id="0Bl3yuooD-DPhsjYiCxI-25" value="wybrano metodę&lt;div&gt;algorytmów genetycznych&lt;/div&gt;" style="html=1;whiteSpace=wrap;" vertex="1" parent="1">
          <mxGeometry x="455" y="375" width="110" height="50" as="geometry" />
        </mxCell>
        <mxCell id="0Bl3yuooD-DPhsjYiCxI-26" value="" style="endArrow=none;dashed=1;html=1;dashPattern=1 3;strokeWidth=2;rounded=0;" edge="1" parent="1" source="0Bl3yuooD-DPhsjYiCxI-25">
          <mxGeometry width="50" height="50" relative="1" as="geometry">
            <mxPoint x="380" y="360" as="sourcePoint" />
            <mxPoint x="510" y="300" as="targetPoint" />
          </mxGeometry>
        </mxCell>
        <mxCell id="0Bl3yuooD-DPhsjYiCxI-27" value="&lt;div&gt;rozwiązywanie&lt;/div&gt;&lt;div&gt;w toku&lt;/div&gt;" style="ellipse;whiteSpace=wrap;html=1;fillColor=#dae8fc;strokeColor=#6c8ebf;" vertex="1" parent="1">
          <mxGeometry x="290" y="390" width="100" height="50" as="geometry" />
        </mxCell>
        <mxCell id="0Bl3yuooD-DPhsjYiCxI-28" value="" style="endArrow=classic;html=1;rounded=0;" edge="1" parent="1" source="0Bl3yuooD-DPhsjYiCxI-5" target="0Bl3yuooD-DPhsjYiCxI-27">
          <mxGeometry width="50" height="50" relative="1" as="geometry">
            <mxPoint x="380" y="360" as="sourcePoint" />
            <mxPoint x="430" y="310" as="targetPoint" />
          </mxGeometry>
        </mxCell>
        <mxCell id="0Bl3yuooD-DPhsjYiCxI-29" value="" style="endArrow=classic;html=1;rounded=0;" edge="1" parent="1" source="0Bl3yuooD-DPhsjYiCxI-27" target="0Bl3yuooD-DPhsjYiCxI-9">
          <mxGeometry width="50" height="50" relative="1" as="geometry">
            <mxPoint x="380" y="360" as="sourcePoint" />
            <mxPoint x="430" y="310" as="targetPoint" />
          </mxGeometry>
        </mxCell>
        <mxCell id="0Bl3yuooD-DPhsjYiCxI-30" value="&lt;div&gt;prezentacja&lt;/div&gt;&lt;div&gt;wyników&lt;/div&gt;&lt;div&gt;pośrednich&lt;/div&gt;" style="ellipse;whiteSpace=wrap;html=1;fillColor=#dae8fc;strokeColor=#6c8ebf;" vertex="1" parent="1">
          <mxGeometry x="420" y="470" width="100" height="50" as="geometry" />
        </mxCell>
        <mxCell id="0Bl3yuooD-DPhsjYiCxI-31" value="" style="endArrow=classic;html=1;rounded=0;dashed=1;entryX=0;entryY=0;entryDx=0;entryDy=0;" edge="1" parent="1" source="0Bl3yuooD-DPhsjYiCxI-27" target="0Bl3yuooD-DPhsjYiCxI-30">
          <mxGeometry relative="1" as="geometry">
            <mxPoint x="377" y="286" as="sourcePoint" />
            <mxPoint x="303" y="244" as="targetPoint" />
          </mxGeometry>
        </mxCell>
        <mxCell id="0Bl3yuooD-DPhsjYiCxI-32" value="&amp;lt;&amp;lt;include&amp;gt;&amp;gt;" style="edgeLabel;resizable=0;html=1;;align=center;verticalAlign=middle;" connectable="0" vertex="1" parent="0Bl3yuooD-DPhsjYiCxI-31">
          <mxGeometry relative="1" as="geometry" />
        </mxCell>
      </root>
    </mxGraphModel>
  </diagram>
</mxfile>
